<mxfile host="65bd71144e">
    <diagram id="EyeSDz4IicZ5r_xgbc1o" name="ページ1">
        <mxGraphModel dx="464" dy="390" grid="1" gridSize="10" guides="1" tooltips="1" connect="1" arrows="1" fold="1" page="1" pageScale="1" pageWidth="280" pageHeight="280" background="#ffffff" math="0" shadow="0">
            <root>
                <mxCell id="0"/>
                <mxCell id="1" parent="0"/>
                <mxCell id="2" value="" style="whiteSpace=wrap;html=1;aspect=fixed;fillColor=none;strokeColor=#000000;" parent="1" vertex="1">
                    <mxGeometry x="40" y="40" width="200" height="200" as="geometry"/>
                </mxCell>
                <mxCell id="9" value="" style="endArrow=none;html=1;strokeColor=#000000;" parent="1" edge="1">
                    <mxGeometry width="50" height="50" relative="1" as="geometry">
                        <mxPoint x="79.5" y="240" as="sourcePoint"/>
                        <mxPoint x="79.5" y="40" as="targetPoint"/>
                    </mxGeometry>
                </mxCell>
                <mxCell id="10" value="" style="endArrow=none;html=1;strokeColor=#000000;" parent="1" edge="1">
                    <mxGeometry width="50" height="50" relative="1" as="geometry">
                        <mxPoint x="119.5" y="240" as="sourcePoint"/>
                        <mxPoint x="119.5" y="40" as="targetPoint"/>
                    </mxGeometry>
                </mxCell>
                <mxCell id="11" value="" style="endArrow=none;html=1;strokeColor=#000000;" parent="1" edge="1">
                    <mxGeometry width="50" height="50" relative="1" as="geometry">
                        <mxPoint x="159.5" y="240" as="sourcePoint"/>
                        <mxPoint x="159.5" y="40" as="targetPoint"/>
                    </mxGeometry>
                </mxCell>
                <mxCell id="12" value="" style="endArrow=none;html=1;strokeColor=#000000;" parent="1" edge="1">
                    <mxGeometry width="50" height="50" relative="1" as="geometry">
                        <mxPoint x="199.5" y="240" as="sourcePoint"/>
                        <mxPoint x="199.5" y="40" as="targetPoint"/>
                    </mxGeometry>
                </mxCell>
                <mxCell id="16" value="" style="endArrow=none;html=1;strokeColor=#000000;" parent="1" edge="1">
                    <mxGeometry width="50" height="50" relative="1" as="geometry">
                        <mxPoint x="40" y="80" as="sourcePoint"/>
                        <mxPoint x="240" y="80" as="targetPoint"/>
                    </mxGeometry>
                </mxCell>
                <mxCell id="17" value="" style="endArrow=none;html=1;strokeColor=#000000;" parent="1" edge="1">
                    <mxGeometry width="50" height="50" relative="1" as="geometry">
                        <mxPoint x="40" y="120" as="sourcePoint"/>
                        <mxPoint x="240" y="120" as="targetPoint"/>
                    </mxGeometry>
                </mxCell>
                <mxCell id="18" value="" style="endArrow=none;html=1;strokeColor=#000000;" parent="1" edge="1">
                    <mxGeometry width="50" height="50" relative="1" as="geometry">
                        <mxPoint x="40" y="160" as="sourcePoint"/>
                        <mxPoint x="240" y="160" as="targetPoint"/>
                    </mxGeometry>
                </mxCell>
                <mxCell id="19" value="" style="endArrow=none;html=1;strokeColor=#000000;" parent="1" edge="1">
                    <mxGeometry width="50" height="50" relative="1" as="geometry">
                        <mxPoint x="40" y="200" as="sourcePoint"/>
                        <mxPoint x="240" y="200" as="targetPoint"/>
                    </mxGeometry>
                </mxCell>
                <mxCell id="57" value="" style="endArrow=none;html=1;strokeColor=#FF0000;fontSize=24;fontColor=#000000;strokeWidth=3;" parent="1" edge="1">
                    <mxGeometry width="50" height="50" relative="1" as="geometry">
                        <mxPoint x="58.75" y="219.5" as="sourcePoint"/>
                        <mxPoint x="58.75" y="179.5" as="targetPoint"/>
                    </mxGeometry>
                </mxCell>
                <mxCell id="58" value="" style="endArrow=none;html=1;strokeColor=#FF0000;fontSize=24;fontColor=#000000;strokeWidth=3;" parent="1" edge="1">
                    <mxGeometry width="50" height="50" relative="1" as="geometry">
                        <mxPoint x="58.75" y="179.5" as="sourcePoint"/>
                        <mxPoint x="58.75" y="139.5" as="targetPoint"/>
                    </mxGeometry>
                </mxCell>
                <mxCell id="59" value="" style="endArrow=none;html=1;strokeColor=#FF0000;fontSize=24;fontColor=#000000;strokeWidth=3;" parent="1" edge="1">
                    <mxGeometry width="50" height="50" relative="1" as="geometry">
                        <mxPoint x="58.75" y="139.5" as="sourcePoint"/>
                        <mxPoint x="58.75" y="99.5" as="targetPoint"/>
                    </mxGeometry>
                </mxCell>
                <mxCell id="60" value="" style="endArrow=none;html=1;strokeColor=#FF0000;fontSize=24;fontColor=#000000;strokeWidth=3;" parent="1" edge="1">
                    <mxGeometry width="50" height="50" relative="1" as="geometry">
                        <mxPoint x="98.75" y="99.5" as="sourcePoint"/>
                        <mxPoint x="58.75" y="99.5" as="targetPoint"/>
                    </mxGeometry>
                </mxCell>
                <mxCell id="61" value="" style="endArrow=none;html=1;strokeColor=#FF0000;fontSize=24;fontColor=#000000;strokeWidth=3;" parent="1" edge="1">
                    <mxGeometry width="50" height="50" relative="1" as="geometry">
                        <mxPoint x="138.75" y="59.5" as="sourcePoint"/>
                        <mxPoint x="98.75" y="59.5" as="targetPoint"/>
                    </mxGeometry>
                </mxCell>
                <mxCell id="62" value="" style="endArrow=none;html=1;strokeColor=#FF0000;fontSize=24;fontColor=#000000;strokeWidth=3;" parent="1" edge="1">
                    <mxGeometry width="50" height="50" relative="1" as="geometry">
                        <mxPoint x="218.75" y="59.5" as="sourcePoint"/>
                        <mxPoint x="178.75" y="59.5" as="targetPoint"/>
                    </mxGeometry>
                </mxCell>
                <mxCell id="63" value="" style="endArrow=none;html=1;strokeColor=#FF0000;fontSize=24;fontColor=#000000;strokeWidth=3;" parent="1" edge="1">
                    <mxGeometry width="50" height="50" relative="1" as="geometry">
                        <mxPoint x="218.75" y="99.5" as="sourcePoint"/>
                        <mxPoint x="178.75" y="99.5" as="targetPoint"/>
                    </mxGeometry>
                </mxCell>
                <mxCell id="64" value="" style="endArrow=none;html=1;strokeColor=#FF0000;fontSize=24;fontColor=#000000;strokeWidth=3;" parent="1" edge="1">
                    <mxGeometry width="50" height="50" relative="1" as="geometry">
                        <mxPoint x="178.75" y="99.5" as="sourcePoint"/>
                        <mxPoint x="178.75" y="59.5" as="targetPoint"/>
                    </mxGeometry>
                </mxCell>
                <mxCell id="65" value="" style="endArrow=none;html=1;strokeColor=#FF0000;fontSize=24;fontColor=#000000;strokeWidth=3;" parent="1" edge="1">
                    <mxGeometry width="50" height="50" relative="1" as="geometry">
                        <mxPoint x="218.75" y="99.5" as="sourcePoint"/>
                        <mxPoint x="218.75" y="59.5" as="targetPoint"/>
                    </mxGeometry>
                </mxCell>
                <mxCell id="66" value="" style="endArrow=none;html=1;strokeColor=#FF0000;fontSize=24;fontColor=#000000;strokeWidth=3;" parent="1" edge="1">
                    <mxGeometry width="50" height="50" relative="1" as="geometry">
                        <mxPoint x="138.75" y="140.25" as="sourcePoint"/>
                        <mxPoint x="98.75" y="140.25" as="targetPoint"/>
                    </mxGeometry>
                </mxCell>
                <mxCell id="67" value="" style="endArrow=none;html=1;strokeColor=#FF0000;fontSize=24;fontColor=#000000;strokeWidth=3;" parent="1" edge="1">
                    <mxGeometry width="50" height="50" relative="1" as="geometry">
                        <mxPoint x="178.75" y="140.25" as="sourcePoint"/>
                        <mxPoint x="138.75" y="140.25" as="targetPoint"/>
                    </mxGeometry>
                </mxCell>
                <mxCell id="68" value="" style="endArrow=none;html=1;strokeColor=#FF0000;fontSize=24;fontColor=#000000;strokeWidth=3;" parent="1" edge="1">
                    <mxGeometry width="50" height="50" relative="1" as="geometry">
                        <mxPoint x="218.75" y="179.5" as="sourcePoint"/>
                        <mxPoint x="178.75" y="179.5" as="targetPoint"/>
                    </mxGeometry>
                </mxCell>
                <mxCell id="69" value="" style="endArrow=none;html=1;strokeColor=#FF0000;fontSize=24;fontColor=#000000;strokeWidth=3;" parent="1" edge="1">
                    <mxGeometry width="50" height="50" relative="1" as="geometry">
                        <mxPoint x="138.75" y="209.5" as="sourcePoint"/>
                        <mxPoint x="98.75" y="209.5" as="targetPoint"/>
                    </mxGeometry>
                </mxCell>
                <mxCell id="70" value="" style="endArrow=none;html=1;strokeColor=#FF0000;fontSize=24;fontColor=#000000;strokeWidth=3;" parent="1" edge="1">
                    <mxGeometry width="50" height="50" relative="1" as="geometry">
                        <mxPoint x="98.75" y="209.5" as="sourcePoint"/>
                        <mxPoint x="98.75" y="169.5" as="targetPoint"/>
                    </mxGeometry>
                </mxCell>
                <mxCell id="20" value="24" style="text;html=1;strokeColor=none;fillColor=none;align=center;verticalAlign=middle;whiteSpace=wrap;rounded=0;fontColor=#000000;fontSize=24;" parent="1" vertex="1">
                    <mxGeometry x="204" y="203.5" width="35" height="30" as="geometry"/>
                </mxCell>
                <mxCell id="21" value="23" style="text;html=1;strokeColor=none;fillColor=none;align=center;verticalAlign=middle;whiteSpace=wrap;rounded=0;fontColor=#000000;fontSize=24;" parent="1" vertex="1">
                    <mxGeometry x="162" y="203.5" width="35" height="30" as="geometry"/>
                </mxCell>
                <mxCell id="22" value="22" style="text;html=1;strokeColor=none;fillColor=none;align=center;verticalAlign=middle;whiteSpace=wrap;rounded=0;fontColor=#000000;fontSize=24;" parent="1" vertex="1">
                    <mxGeometry x="125" y="203.5" width="35" height="30" as="geometry"/>
                </mxCell>
                <mxCell id="23" value="21" style="text;html=1;strokeColor=none;fillColor=none;align=center;verticalAlign=middle;whiteSpace=wrap;rounded=0;fontColor=#000000;fontSize=24;" parent="1" vertex="1">
                    <mxGeometry x="84" y="203.5" width="35" height="30" as="geometry"/>
                </mxCell>
                <mxCell id="24" value="20" style="text;html=1;strokeColor=none;fillColor=none;align=center;verticalAlign=middle;whiteSpace=wrap;rounded=0;fontColor=#000000;fontSize=24;" parent="1" vertex="1">
                    <mxGeometry x="42" y="203.5" width="35" height="30" as="geometry"/>
                </mxCell>
                <mxCell id="25" value="19" style="text;html=1;strokeColor=none;fillColor=none;align=center;verticalAlign=middle;whiteSpace=wrap;rounded=0;fontColor=#000000;fontSize=24;" parent="1" vertex="1">
                    <mxGeometry x="201.5" y="167.5" width="35" height="30" as="geometry"/>
                </mxCell>
                <mxCell id="26" value="18" style="text;html=1;strokeColor=none;fillColor=none;align=center;verticalAlign=middle;whiteSpace=wrap;rounded=0;fontColor=#000000;fontSize=24;" parent="1" vertex="1">
                    <mxGeometry x="159.5" y="167.5" width="35" height="30" as="geometry"/>
                </mxCell>
                <mxCell id="27" value="17" style="text;html=1;strokeColor=none;fillColor=none;align=center;verticalAlign=middle;whiteSpace=wrap;rounded=0;fontColor=#000000;fontSize=24;" parent="1" vertex="1">
                    <mxGeometry x="122.5" y="167.5" width="35" height="30" as="geometry"/>
                </mxCell>
                <mxCell id="28" value="16" style="text;html=1;strokeColor=none;fillColor=none;align=center;verticalAlign=middle;whiteSpace=wrap;rounded=0;fontColor=#000000;fontSize=24;" parent="1" vertex="1">
                    <mxGeometry x="81.5" y="167.5" width="35" height="30" as="geometry"/>
                </mxCell>
                <mxCell id="29" value="15" style="text;html=1;strokeColor=none;fillColor=none;align=center;verticalAlign=middle;whiteSpace=wrap;rounded=0;fontColor=#000000;fontSize=24;" parent="1" vertex="1">
                    <mxGeometry x="39.5" y="167.5" width="35" height="30" as="geometry"/>
                </mxCell>
                <mxCell id="41" value="14" style="text;html=1;strokeColor=none;fillColor=none;align=center;verticalAlign=middle;whiteSpace=wrap;rounded=0;fontColor=#000000;fontSize=24;" parent="1" vertex="1">
                    <mxGeometry x="203.5" y="124.5" width="35" height="30" as="geometry"/>
                </mxCell>
                <mxCell id="42" value="13" style="text;html=1;strokeColor=none;fillColor=none;align=center;verticalAlign=middle;whiteSpace=wrap;rounded=0;fontColor=#000000;fontSize=24;" parent="1" vertex="1">
                    <mxGeometry x="161.5" y="124.5" width="35" height="30" as="geometry"/>
                </mxCell>
                <mxCell id="43" value="12" style="text;html=1;strokeColor=none;fillColor=none;align=center;verticalAlign=middle;whiteSpace=wrap;rounded=0;fontColor=#000000;fontSize=24;" parent="1" vertex="1">
                    <mxGeometry x="124.5" y="124.5" width="35" height="30" as="geometry"/>
                </mxCell>
                <mxCell id="44" value="11" style="text;html=1;strokeColor=none;fillColor=none;align=center;verticalAlign=middle;whiteSpace=wrap;rounded=0;fontColor=#000000;fontSize=24;" parent="1" vertex="1">
                    <mxGeometry x="83.5" y="124.5" width="35" height="30" as="geometry"/>
                </mxCell>
                <mxCell id="45" value="10" style="text;html=1;strokeColor=none;fillColor=none;align=center;verticalAlign=middle;whiteSpace=wrap;rounded=0;fontColor=#000000;fontSize=24;" parent="1" vertex="1">
                    <mxGeometry x="41.5" y="124.5" width="35" height="30" as="geometry"/>
                </mxCell>
                <mxCell id="46" value="09" style="text;html=1;strokeColor=none;fillColor=none;align=center;verticalAlign=middle;whiteSpace=wrap;rounded=0;fontColor=#000000;fontSize=24;" parent="1" vertex="1">
                    <mxGeometry x="204" y="88.5" width="35" height="30" as="geometry"/>
                </mxCell>
                <mxCell id="47" value="08" style="text;html=1;strokeColor=none;fillColor=none;align=center;verticalAlign=middle;whiteSpace=wrap;rounded=0;fontColor=#000000;fontSize=24;" parent="1" vertex="1">
                    <mxGeometry x="162" y="88.5" width="35" height="30" as="geometry"/>
                </mxCell>
                <mxCell id="48" value="07" style="text;html=1;strokeColor=none;fillColor=none;align=center;verticalAlign=middle;whiteSpace=wrap;rounded=0;fontColor=#000000;fontSize=24;" parent="1" vertex="1">
                    <mxGeometry x="125" y="88.5" width="35" height="30" as="geometry"/>
                </mxCell>
                <mxCell id="49" value="06" style="text;html=1;strokeColor=none;fillColor=none;align=center;verticalAlign=middle;whiteSpace=wrap;rounded=0;fontColor=#000000;fontSize=24;" parent="1" vertex="1">
                    <mxGeometry x="84" y="88.5" width="35" height="30" as="geometry"/>
                </mxCell>
                <mxCell id="50" value="05" style="text;html=1;strokeColor=none;fillColor=none;align=center;verticalAlign=middle;whiteSpace=wrap;rounded=0;fontColor=#000000;fontSize=24;" parent="1" vertex="1">
                    <mxGeometry x="42" y="88.5" width="35" height="30" as="geometry"/>
                </mxCell>
                <mxCell id="51" value="04" style="text;html=1;strokeColor=none;fillColor=none;align=center;verticalAlign=middle;whiteSpace=wrap;rounded=0;fontColor=#000000;fontSize=24;" parent="1" vertex="1">
                    <mxGeometry x="204" y="48.5" width="35" height="30" as="geometry"/>
                </mxCell>
                <mxCell id="52" value="03" style="text;html=1;strokeColor=none;fillColor=none;align=center;verticalAlign=middle;whiteSpace=wrap;rounded=0;fontColor=#000000;fontSize=24;" parent="1" vertex="1">
                    <mxGeometry x="162" y="48.5" width="35" height="30" as="geometry"/>
                </mxCell>
                <mxCell id="53" value="02" style="text;html=1;strokeColor=none;fillColor=none;align=center;verticalAlign=middle;whiteSpace=wrap;rounded=0;fontColor=#000000;fontSize=24;" parent="1" vertex="1">
                    <mxGeometry x="125" y="48.5" width="35" height="30" as="geometry"/>
                </mxCell>
                <mxCell id="54" value="01" style="text;html=1;strokeColor=none;fillColor=none;align=center;verticalAlign=middle;whiteSpace=wrap;rounded=0;fontColor=#000000;fontSize=24;" parent="1" vertex="1">
                    <mxGeometry x="84" y="48.5" width="35" height="30" as="geometry"/>
                </mxCell>
                <mxCell id="55" value="00" style="text;html=1;strokeColor=none;fillColor=none;align=center;verticalAlign=middle;whiteSpace=wrap;rounded=0;fontColor=#000000;fontSize=24;" parent="1" vertex="1">
                    <mxGeometry x="42" y="48.5" width="35" height="30" as="geometry"/>
                </mxCell>
                <mxCell id="71" value="" style="endArrow=none;html=1;strokeColor=#FF0000;fontSize=24;fontColor=#000000;strokeWidth=3;" edge="1" parent="1">
                    <mxGeometry width="50" height="50" relative="1" as="geometry">
                        <mxPoint x="219.75" y="219" as="sourcePoint"/>
                        <mxPoint x="219.75" y="179" as="targetPoint"/>
                    </mxGeometry>
                </mxCell>
            </root>
        </mxGraphModel>
    </diagram>
</mxfile>